<svg width="60" height="60" viewBox="0 0 60 60" fill="none" xmlns="http://www.w3.org/2000/svg">
<circle cx="30" cy="30" r="30" fill="#AAD4C8"/>
<path d="M37.7471 41H23.7725V39.0518L31.1553 30.8486C32.249 29.6084 33.001 28.6025 33.4111 27.8311C33.8311 27.0498 34.041 26.2441 34.041 25.4141C34.041 24.3008 33.7041 23.3877 33.0303 22.6748C32.3564 21.9619 31.458 21.6055 30.335 21.6055C28.9873 21.6055 27.9375 21.9912 27.1855 22.7627C26.4434 23.5244 26.0723 24.5889 26.0723 25.9561H23.3623C23.3623 23.9932 23.9922 22.4062 25.252 21.1953C26.5215 19.9844 28.2158 19.3789 30.335 19.3789C32.3174 19.3789 33.8848 19.9014 35.0371 20.9463C36.1895 21.9814 36.7656 23.3633 36.7656 25.0918C36.7656 27.1914 35.4277 29.6914 32.752 32.5918L27.0391 38.7881H37.7471V41Z" fill="white"/>
</svg>
