<svg width="60" height="60" viewBox="0 0 60 60" fill="none" xmlns="http://www.w3.org/2000/svg">
<circle cx="30" cy="30" r="30" fill="#AAD4C8"/>
<path d="M27.7129 29.0176H29.749C31.0283 28.998 32.0342 28.6611 32.7666 28.0068C33.499 27.3525 33.8652 26.4688 33.8652 25.3555C33.8652 22.8555 32.6201 21.6055 30.1299 21.6055C28.958 21.6055 28.0205 21.9424 27.3174 22.6162C26.624 23.2803 26.2773 24.1641 26.2773 25.2676H23.5674C23.5674 23.5781 24.1826 22.1768 25.4131 21.0635C26.6533 19.9404 28.2256 19.3789 30.1299 19.3789C32.1416 19.3789 33.7188 19.9111 34.8613 20.9756C36.0039 22.04 36.5752 23.5195 36.5752 25.4141C36.5752 26.3418 36.2725 27.2402 35.667 28.1094C35.0713 28.9785 34.2559 29.6279 33.2207 30.0576C34.3926 30.4287 35.2959 31.0439 35.9307 31.9033C36.5752 32.7627 36.8975 33.8125 36.8975 35.0527C36.8975 36.9668 36.2725 38.4854 35.0225 39.6084C33.7725 40.7314 32.1465 41.293 30.1445 41.293C28.1426 41.293 26.5117 40.751 25.252 39.667C24.002 38.583 23.377 37.1523 23.377 35.375H26.1016C26.1016 36.498 26.4678 37.3965 27.2002 38.0703C27.9326 38.7441 28.9141 39.0811 30.1445 39.0811C31.4531 39.0811 32.4541 38.7393 33.1475 38.0557C33.8408 37.3721 34.1875 36.3906 34.1875 35.1113C34.1875 33.8711 33.8066 32.9189 33.0449 32.2549C32.2832 31.5908 31.1846 31.249 29.749 31.2295H27.7129V29.0176Z" fill="white"/>
</svg>
