<svg width="51" height="61" viewBox="0 0 51 61" fill="none" xmlns="http://www.w3.org/2000/svg">
<g opacity="0.15">
<path opacity="0.15" d="M10.4763 10.105L16.7384 8.42706" stroke="#0964AF" stroke-width="3.1215" stroke-miterlimit="10" stroke-linecap="round" stroke-linejoin="round"/>
<path opacity="0.15" d="M31.3583 6.65527L36.1366 5.37493" stroke="#0964AF" stroke-width="3.1215" stroke-miterlimit="10" stroke-linecap="round" stroke-linejoin="round"/>
<path opacity="0.15" d="M11.0127 12.1069L29.296 7.20794" stroke="#0964AF" stroke-width="3.1215" stroke-miterlimit="10" stroke-linecap="round" stroke-linejoin="round"/>
<path opacity="0.15" d="M11.5492 14.1089L36.673 7.37698" stroke="#0964AF" stroke-width="3.1215" stroke-miterlimit="10" stroke-linecap="round" stroke-linejoin="round"/>
<path opacity="0.15" d="M29.2053 11.4968L37.2027 9.35394" stroke="#0964AF" stroke-width="3.1215" stroke-miterlimit="10" stroke-linecap="round" stroke-linejoin="round"/>
<path opacity="0.15" d="M12.0789 16.0857L27.2185 12.029" stroke="#0964AF" stroke-width="3.1215" stroke-miterlimit="10" stroke-linecap="round" stroke-linejoin="round"/>
<path opacity="0.15" d="M18.8007 7.87451L35.6002 3.3731" stroke="#0964AF" stroke-width="3.1215" stroke-miterlimit="10" stroke-linecap="round" stroke-linejoin="round"/>
</g>
<g opacity="0.15">
<path opacity="0.15" d="M14.3116 24.4187L20.5737 22.7408" stroke="#0964AF" stroke-width="3.1215" stroke-miterlimit="10" stroke-linecap="round" stroke-linejoin="round"/>
<path opacity="0.15" d="M35.1936 20.969L39.9719 19.6887" stroke="#0964AF" stroke-width="3.1215" stroke-miterlimit="10" stroke-linecap="round" stroke-linejoin="round"/>
<path opacity="0.15" d="M14.848 26.4207L33.1313 21.5217" stroke="#0964AF" stroke-width="3.1215" stroke-miterlimit="10" stroke-linecap="round" stroke-linejoin="round"/>
<path opacity="0.15" d="M15.3778 28.3975L40.5016 21.6655" stroke="#0964AF" stroke-width="3.1215" stroke-miterlimit="10" stroke-linecap="round" stroke-linejoin="round"/>
<path opacity="0.15" d="M33.0406 25.8103L41.038 23.6674" stroke="#0964AF" stroke-width="3.1215" stroke-miterlimit="10" stroke-linecap="round" stroke-linejoin="round"/>
<path opacity="0.15" d="M15.9142 30.3994L31.0539 26.3427" stroke="#0964AF" stroke-width="3.1215" stroke-miterlimit="10" stroke-linecap="round" stroke-linejoin="round"/>
<path opacity="0.15" d="M22.636 22.1882L39.4355 17.6868" stroke="#0964AF" stroke-width="3.1215" stroke-miterlimit="10" stroke-linecap="round" stroke-linejoin="round"/>
</g>
<g opacity="0.15">
<path opacity="0.15" d="M18.0129 38.2319L24.275 36.554" stroke="#0964AF" stroke-width="3.1215" stroke-miterlimit="10" stroke-linecap="round" stroke-linejoin="round"/>
<path opacity="0.15" d="M38.8882 34.7573L43.6665 33.477" stroke="#0964AF" stroke-width="3.1215" stroke-miterlimit="10" stroke-linecap="round" stroke-linejoin="round"/>
<path opacity="0.15" d="M18.5426 40.2087L36.8259 35.3097" stroke="#0964AF" stroke-width="3.1215" stroke-miterlimit="10" stroke-linecap="round" stroke-linejoin="round"/>
<path opacity="0.15" d="M19.0791 42.2107L44.2029 35.4788" stroke="#0964AF" stroke-width="3.1215" stroke-miterlimit="10" stroke-linecap="round" stroke-linejoin="round"/>
<path opacity="0.15" d="M36.7352 39.5986L44.7326 37.4557" stroke="#0964AF" stroke-width="3.1215" stroke-miterlimit="10" stroke-linecap="round" stroke-linejoin="round"/>
<path opacity="0.15" d="M19.6088 44.1875L34.7484 40.1308" stroke="#0964AF" stroke-width="3.1215" stroke-miterlimit="10" stroke-linecap="round" stroke-linejoin="round"/>
<path opacity="0.15" d="M26.3373 36.0015L43.1368 31.5" stroke="#0964AF" stroke-width="3.1215" stroke-miterlimit="10" stroke-linecap="round" stroke-linejoin="round"/>
</g>
<g opacity="0.15">
<path opacity="0.15" d="M21.7812 52.2954L28.0433 50.6175" stroke="#0964AF" stroke-width="3.1215" stroke-miterlimit="10" stroke-linecap="round" stroke-linejoin="round"/>
<path opacity="0.15" d="M42.6565 48.8208L47.4348 47.5405" stroke="#0964AF" stroke-width="3.1215" stroke-miterlimit="10" stroke-linecap="round" stroke-linejoin="round"/>
<path opacity="0.15" d="M22.3109 54.2722L40.5942 49.3732" stroke="#0964AF" stroke-width="3.1215" stroke-miterlimit="10" stroke-linecap="round" stroke-linejoin="round"/>
<path opacity="0.15" d="M22.8474 56.2742L47.9712 49.5423" stroke="#0964AF" stroke-width="3.1215" stroke-miterlimit="10" stroke-linecap="round" stroke-linejoin="round"/>
<path opacity="0.15" d="M40.5035 53.6621L48.5009 51.5192" stroke="#0964AF" stroke-width="3.1215" stroke-miterlimit="10" stroke-linecap="round" stroke-linejoin="round"/>
<path opacity="0.15" d="M23.3771 58.251L38.5168 54.1943" stroke="#0964AF" stroke-width="3.1215" stroke-miterlimit="10" stroke-linecap="round" stroke-linejoin="round"/>
<path opacity="0.15" d="M30.1056 50.0649L46.9051 45.5635" stroke="#0964AF" stroke-width="3.1215" stroke-miterlimit="10" stroke-linecap="round" stroke-linejoin="round"/>
</g>
<path d="M9.2102 15.9425L4.50734 17.2026C4.20556 17.2835 3.91887 17.1189 3.83841 16.8186L2.59125 12.1642C2.51079 11.8639 2.67678 11.578 2.97857 11.4972L7.68143 10.237C7.98321 10.1562 8.2699 10.3207 8.35036 10.621L9.60423 15.3005C9.67798 15.5758 9.48684 15.8684 9.2102 15.9425Z" stroke="#2396B5" stroke-width="1.1566" stroke-miterlimit="10"/>
<path d="M13.0321 30.2061L8.32924 31.4662C8.02745 31.5471 7.74076 31.3825 7.6603 31.0822L6.40643 26.4027C6.32597 26.1024 6.49197 25.8165 6.79375 25.7357L11.4966 24.4756C11.7984 24.3947 12.0851 24.5593 12.1655 24.8596L13.4194 29.539C13.4999 29.8393 13.3087 30.1319 13.0321 30.2061Z" stroke="#2396B5" stroke-width="1.1566" stroke-miterlimit="10"/>
<path d="M16.8541 44.4697L12.1513 45.7299C11.8495 45.8107 11.5628 45.6461 11.4823 45.3459L10.2285 40.6664C10.148 40.3661 10.314 40.0802 10.6158 39.9994L15.3186 38.7392C15.6204 38.6584 15.9071 38.8229 15.9876 39.1232L17.2414 43.8027C17.3152 44.078 17.1308 44.3956 16.8541 44.4697Z" stroke="#2396B5" stroke-width="1.1566" stroke-miterlimit="10"/>
<path d="M20.676 58.7336L15.9732 59.9938C15.6714 60.0746 15.3847 59.9101 15.3042 59.6098L14.0504 54.9303C13.9699 54.63 14.1359 54.3441 14.4377 54.2633L19.1405 53.0031C19.4423 52.9223 19.729 53.0869 19.8095 53.3871L21.0633 58.0666C21.1371 58.3419 20.9527 58.6595 20.676 58.7336Z" stroke="#2396B5" stroke-width="1.1566" stroke-miterlimit="10"/>
<path d="M3.65085 13.3017L6.51099 15.3247L8.92897 7.64976" stroke="#FFA829" stroke-width="3.4699" stroke-miterlimit="10" stroke-linecap="round" stroke-linejoin="round"/>
<path d="M7.43917 27.4404L10.2993 29.4633L12.7173 21.7884" stroke="#FFA829" stroke-width="3.4699" stroke-miterlimit="10" stroke-linecap="round" stroke-linejoin="round"/>
</svg>
